<svg width="96" height="96" viewBox="0 0 96 96" fill="none" xmlns="http://www.w3.org/2000/svg" role="img" aria-label="城客增长引擎品牌标识">
  <defs>
    <linearGradient id="markGradient" x1="18" y1="16" x2="78" y2="84" gradientUnits="userSpaceOnUse">
      <stop offset="0" stop-color="#111827"/>
      <stop offset="0.42" stop-color="#2563EB"/>
      <stop offset="1" stop-color="#21C7A8"/>
    </linearGradient>
  </defs>
  <rect x="8" y="8" width="80" height="80" rx="20" fill="#F8FAFC"/>
  <path d="M48 18C37.8 18 29.5 26.1 29.5 36.1C29.5 50 48 73 48 73C48 73 66.5 50 66.5 36.1C66.5 26.1 58.2 18 48 18ZM48 44.3C43.4 44.3 39.7 40.6 39.7 36.1C39.7 31.6 43.4 27.9 48 27.9C52.6 27.9 56.3 31.6 56.3 36.1C56.3 40.6 52.6 44.3 48 44.3Z" fill="url(#markGradient)"/>
  <path d="M25 63.5C30.3 70.8 38.6 75 48 75C57.4 75 65.7 70.8 71 63.5" stroke="#21C7A8" stroke-width="5" stroke-linecap="round"/>
  <path d="M22 30.5C17.6 36.2 15 43.2 15 50.8C15 69.1 29.8 84 48 84C66.2 84 81 69.1 81 50.8C81 43.2 78.4 36.2 74 30.5" stroke="#2563EB" stroke-width="4" stroke-linecap="round" stroke-dasharray="1 9"/>
</svg>
