<svg width="330" height="72" viewBox="0 0 330 72" fill="none" xmlns="http://www.w3.org/2000/svg" role="img" aria-label="城客增长引擎">
  <defs>
    <linearGradient id="logoGradient" x1="12" y1="10" x2="60" y2="62" gradientUnits="userSpaceOnUse">
      <stop offset="0" stop-color="#111827"/>
      <stop offset="0.42" stop-color="#2563EB"/>
      <stop offset="1" stop-color="#21C7A8"/>
    </linearGradient>
  </defs>
  <rect x="4" y="4" width="64" height="64" rx="16" fill="#F8FAFC"/>
  <path d="M36 13C27.7 13 21 19.6 21 27.7C21 39 36 57.7 36 57.7C36 57.7 51 39 51 27.7C51 19.6 44.3 13 36 13ZM36 34.3C32.3 34.3 29.3 31.3 29.3 27.7C29.3 24.1 32.3 21.1 36 21.1C39.7 21.1 42.7 24.1 42.7 27.7C42.7 31.3 39.7 34.3 36 34.3Z" fill="url(#logoGradient)"/>
  <path d="M17.5 49.5C21.9 55.5 28.6 59 36 59C43.4 59 50.1 55.5 54.5 49.5" stroke="#21C7A8" stroke-width="4" stroke-linecap="round"/>
  <text x="86" y="34" fill="#111827" font-family="-apple-system, BlinkMacSystemFont, 'PingFang SC', 'Microsoft YaHei', sans-serif" font-size="26" font-weight="800">城客增长引擎</text>
  <text x="87" y="55" fill="#64748B" font-family="-apple-system, BlinkMacSystemFont, 'PingFang SC', 'Microsoft YaHei', sans-serif" font-size="13" font-weight="600" letter-spacing="1.8">LOCAL GROWTH ENGINE</text>
</svg>
