<svg width="96" height="96" viewBox="0 0 96 96" fill="none" xmlns="http://www.w3.org/2000/svg" role="img" aria-label="城客增长引擎图标">
  <defs>
    <linearGradient id="ck-mark" x1="20" y1="18" x2="77" y2="80" gradientUnits="userSpaceOnUse">
      <stop offset="0" stop-color="#2563EB"/>
      <stop offset="0.48" stop-color="#1D4ED8"/>
      <stop offset="0.76" stop-color="#06B6D4"/>
      <stop offset="1" stop-color="#22D3EE"/>
    </linearGradient>
    <filter id="ck-soft" x="4" y="4" width="88" height="88" color-interpolation-filters="sRGB" filterUnits="userSpaceOnUse">
      <feDropShadow dx="0" dy="10" stdDeviation="8" flood-color="#1D4ED8" flood-opacity="0.16"/>
    </filter>
  </defs>
  <g filter="url(#ck-soft)">
    <path d="M69.6 25.8C63.9 20 56.1 16.4 47.5 16.4C30.1 16.4 16 30.5 16 47.9C16 65.3 30.1 79.4 47.5 79.4C58.3 79.4 67.8 74 73.5 65.8" stroke="url(#ck-mark)" stroke-width="13" stroke-linecap="round"/>
    <path d="M60.4 65.6H78.7V47.3" stroke="url(#ck-mark)" stroke-width="13" stroke-linecap="round" stroke-linejoin="round"/>
    <path d="M47.8 25.8C37.9 25.8 29.8 33.7 29.8 43.5C29.8 56.5 47.8 74.2 47.8 74.2C47.8 74.2 65.8 56.5 65.8 43.5C65.8 33.7 57.7 25.8 47.8 25.8Z" fill="#FFFFFF"/>
    <path d="M47.8 31.8C41.2 31.8 35.8 37.1 35.8 43.5C35.8 51.7 47.8 64.8 47.8 64.8C47.8 64.8 59.8 51.7 59.8 43.5C59.8 37.1 54.4 31.8 47.8 31.8Z" fill="#1D4ED8"/>
    <circle cx="47.8" cy="43.6" r="4.4" fill="#FFFFFF"/>
  </g>
</svg>
